# xmcd
#
# Track frame offsets:
#	150
#	11212
#	21644
#	32923
#	42739
#	53975
#	65758
#	78505
#	89506
#	101962
#	111996
#	124995
#
# Disc length: 1772 seconds
#
# Revision: 1
# Processed by: cddbd v1.5.1PL0 Copyright (c) Steve Scherf et al.
# Submitted via: audiograbber 1.83.01
#
DISCID=ba06ea0c
DTITLE=Jean Shepard - Heart to Heart
DYEAR=1900
DGENRE=
TTITLE0=I Don't See How I Can Make It
TTITLE1=What Locks The Door
TTITLE2=Hangin' On
TTITLE3=Evil On Your Mind
TTITLE4=Enough Heart To Hurt
TTITLE5=Roll Muddy River
TTITLE6=Paper Mansions
TTITLE7=Before I'm Over You
TTITLE8=I Washed My Face In The Morning Dew
TTITLE9=Break My Mind
TTITLE10=Release Me
TTITLE11=True Love's A Blessing
EXTD=
EXTT0=
EXTT1=
EXTT2=
EXTT3=
EXTT4=
EXTT5=
EXTT6=
EXTT7=
EXTT8=
EXTT9=
EXTT10=
EXTT11=
PLAYORDER=
